<?xml version="1.0" standalone="no"?><!DOCTYPE svg PUBLIC "-//W3C//DTD SVG 1.1//EN" "http://www.w3.org/Graphics/SVG/1.1/DTD/svg11.dtd"><svg t="1695218801120" class="icon" viewBox="0 0 1024 1024" version="1.1" xmlns="http://www.w3.org/2000/svg" p-id="4161" xmlns:xlink="http://www.w3.org/1999/xlink" width="200" height="200"><path d="M290.0992 409.6H155.136a371.4048 371.4048 0 0 0-14.2848 102.4c0 35.5328 4.9664 69.888 14.336 102.4h134.9632c-5.632-32.768-8.4992-66.9184-8.4992-102.4 0-35.4816 2.8672-69.632 8.4992-102.4z m52.0704 0a542.1056 542.1056 0 0 0-9.3696 102.4c0 35.7376 3.072 69.888 9.3696 102.4H486.4V409.6H342.1696z m75.008 461.3632A491.8784 491.8784 0 0 1 301.568 665.6H173.9776a372.0704 372.0704 0 0 0 243.2 205.3632z m69.2224-3.584V665.6H354.9696c24.064 77.1072 67.84 144.2304 131.4304 201.8304zM417.1776 153.088A372.0704 372.0704 0 0 0 173.9776 358.4H301.568a491.8784 491.8784 0 0 1 115.5584-205.3632z m69.2224 3.584C422.8096 214.1184 379.0848 281.2416 354.9696 358.4H486.4V156.5696zM733.9008 409.6c5.632 32.768 8.4992 66.9184 8.4992 102.4 0 35.4816-2.8672 69.632-8.4992 102.4h135.0144c9.3184-32.512 14.2848-66.8672 14.2848-102.4s-4.9664-69.888-14.336-102.4h-134.9632z m-52.0704 0H537.6v204.8h144.2304c6.2464-32.512 9.3696-66.6624 9.3696-102.4s-3.072-69.888-9.3696-102.4z m-75.008 461.3632A372.0704 372.0704 0 0 0 850.0224 665.6H722.432a491.8784 491.8784 0 0 1-115.5584 205.3632z m-69.2224-3.584c63.5904-57.5488 107.3152-124.672 131.4304-201.7792H537.6v201.8304zM606.8224 153.088A491.8784 491.8784 0 0 1 722.432 358.4h127.6416a372.0704 372.0704 0 0 0-243.2-205.3632z m-69.2224 3.584V358.4h131.4304c-24.064-77.1072-67.84-144.2304-131.4304-201.8304zM512 947.2a435.2 435.2 0 1 1 0-870.4 435.2 435.2 0 0 1 0 870.4z" fill="#13227a" p-id="4162"></path></svg>