<svg fill="none" height="44" viewBox="0 0 44 44" width="44" xmlns="http://www.w3.org/2000/svg" xmlns:xlink="http://www.w3.org/1999/xlink"><filter id="a" color-interpolation-filters="sRGB" filterUnits="userSpaceOnUse" height="43.2" width="43.2" x=".4" y=".2"><feFlood flood-opacity="0" result="BackgroundImageFix"/><feColorMatrix in="SourceAlpha" result="hardAlpha" type="matrix" values="0 0 0 0 0 0 0 0 0 0 0 0 0 0 0 0 0 0 127 0"/><feOffset/><feGaussianBlur stdDeviation=".9"/><feColorMatrix type="matrix" values="0 0 0 0 0 0 0 0 0 0 0 0 0 0 0 0 0 0 0.12 0"/><feBlend in2="BackgroundImageFix" mode="normal" result="effect1_dropShadow_1360_20280"/><feColorMatrix in="SourceAlpha" result="hardAlpha" type="matrix" values="0 0 0 0 0 0 0 0 0 0 0 0 0 0 0 0 0 0 127 0"/><feOffset dy="1.8"/><feGaussianBlur stdDeviation="1.8"/><feColorMatrix type="matrix" values="0 0 0 0 0 0 0 0 0 0 0 0 0 0 0 0 0 0 0.14 0"/><feBlend in2="effect1_dropShadow_1360_20280" mode="normal" result="effect2_dropShadow_1360_20280"/><feBlend in="SourceGraphic" in2="effect2_dropShadow_1360_20280" mode="normal" result="shape"/></filter><filter id="b" color-interpolation-filters="sRGB" filterUnits="userSpaceOnUse" height="24.3" width="21.6" x="11.2" y="9.19995"><feFlood flood-opacity="0" result="BackgroundImageFix"/><feBlend in="SourceGraphic" in2="BackgroundImageFix" mode="normal" result="shape"/><feColorMatrix in="SourceAlpha" result="hardAlpha" type="matrix" values="0 0 0 0 0 0 0 0 0 0 0 0 0 0 0 0 0 0 127 0"/><feOffset dy="2.7"/><feGaussianBlur stdDeviation="4.3875"/><feComposite in2="hardAlpha" k2="-1" k3="1" operator="arithmetic"/><feColorMatrix type="matrix" values="0 0 0 0 0.81875 0 0 0 0 0.824081 0 0 0 0 1 0 0 0 0.37 0"/><feBlend in2="shape" mode="normal" result="effect1_innerShadow_1360_20280"/></filter><linearGradient id="c" gradientUnits="userSpaceOnUse" x1="22" x2="22" y1="2" y2="38"><stop offset="0" stop-color="#f9f9f9"/><stop offset="1" stop-color="#edf0f9"/></linearGradient><linearGradient id="d" gradientUnits="userSpaceOnUse" x1="4.1374" x2="44.5644" y1="44.75" y2="38.7922"><stop offset=".107946" stop-color="#1d6cf2"/><stop offset=".870845" stop-color="#1b4aef"/></linearGradient><radialGradient id="e" cx="0" cy="0" gradientTransform="matrix(30.85713433 7.71425871 -7.71425871 30.85713433 13.3214 34.1429)" gradientUnits="userSpaceOnUse" r="1"><stop offset="0" stop-color="#0b31a3"/><stop offset="1" stop-color="#39a0ed"/></radialGradient><radialGradient id="f" cx="0" cy="0" gradientTransform="matrix(-15.74995106 -12.85725219 12.85725219 -15.74995106 16.2143 14.8571)" gradientUnits="userSpaceOnUse" r="1"><stop offset="0" stop-color="#00fff3" stop-opacity=".77"/><stop offset=".423394" stop-color="#00fff3" stop-opacity=".72"/><stop offset="1" stop-color="#5bdcd6" stop-opacity="0"/></radialGradient><linearGradient id="g" gradientUnits="userSpaceOnUse" x1="21.1724" x2="30.4598" y1="18.6461" y2="23.9903"><stop offset="0" stop-color="#37bdff"/><stop offset=".1832" stop-color="#33bffd"/><stop offset=".3576" stop-color="#28c5f5"/><stop offset=".528" stop-color="#15d0e9"/><stop offset=".5468" stop-color="#12d1e7"/><stop offset=".5903" stop-color="#1cd2e5"/><stop offset=".7679" stop-color="#42d8dc"/><stop offset=".9107" stop-color="#59dbd6"/><stop offset="1" stop-color="#62dcd4"/></linearGradient><linearGradient id="h" gradientUnits="userSpaceOnUse" x1="15.7386" x2="29.2327" y1="26.7035" y2="26.7035"><stop offset="0" stop-color="#39d2ff"/><stop offset=".1501" stop-color="#38cefe"/><stop offset=".2931" stop-color="#35c3fa"/><stop offset=".4327" stop-color="#2fb0f3"/><stop offset=".5468" stop-color="#299aeb"/><stop offset=".5827" stop-color="#2692ec"/><stop offset=".7635" stop-color="#1a6cf1"/><stop offset=".909" stop-color="#1355f4"/><stop offset="1" stop-color="#104cf5"/></linearGradient><linearGradient id="i" gradientUnits="userSpaceOnUse" x1="18.2296" x2="18.2296" y1="27.8936" y2="9.7897"><stop offset="0" stop-color="#1b48ef"/><stop offset=".1221" stop-color="#1c51f0"/><stop offset=".3212" stop-color="#1e69f5"/><stop offset=".5676" stop-color="#2190fb"/><stop offset="1" stop-color="#26b8f4"/></linearGradient><linearGradient id="j"><stop offset="0" stop-color="#fff"/><stop offset=".3726" stop-color="#fdfdfd"/><stop offset=".5069" stop-color="#f6f6f6"/><stop offset=".6026" stop-color="#ebebeb"/><stop offset=".68" stop-color="#dadada"/><stop offset=".7463" stop-color="#c4c4c4"/><stop offset=".805" stop-color="#a8a8a8"/><stop offset=".8581" stop-color="#888"/><stop offset=".9069" stop-color="#626262"/><stop offset=".9523" stop-color="#373737"/><stop offset=".9926" stop-color="#090909"/><stop offset="1"/></linearGradient><linearGradient id="k" gradientUnits="userSpaceOnUse" x1="18.4208" x2="26.7759" xlink:href="#j" y1="30.0449" y2="21.7175"/><linearGradient id="l" gradientUnits="userSpaceOnUse" x1="18.2296" x2="18.2296" xlink:href="#j" y1="9.46851" y2="27.7073"/><clipPath id="m"><path d="m11.2 9.19995h21.6v21.6h-21.6z"/></clipPath><clipPath id="n"><path d="m15.7 9.19995h14.4v21.6h-14.4z"/></clipPath><g filter="url(#a)"><path d="m22 2c9.941 0 18 8.0577 18 17.9973s-8.059 17.9973-18 17.9973c-2.001 0-3.9557-.3273-5.803-.956-1.6967-.5774-3.5178-.8485-5.2523-.397l-5.02702 1.3086c-.8177.2131-1.65326-.2772-1.86624-1.0948-.06586-.2527-.06588-.5181-.00005-.771l1.30665-5.0187c.45215-1.7366.17981-3.56-.39927-5.2585-.63046-1.8493-.95877-3.8064-.95877-5.8099 0-9.9396 8.0589-17.9973 18-17.9973z" fill="url(#c)"/><g stroke-width="1.5"><path d="m5.72875 37.2244h-.00019c-.41682.1086-.84277-.1413-.95133-.558l-.00003-.0002c-.03353-.1286-.03358-.2639 0-.3929l1.30665-5.0186c.50284-1.9314.19001-3.9144-.4152-5.6896-.60387-1.7712-.91865-3.6465-.91865-5.5678 0-9.5253 7.723-17.2473 17.25-17.2473 9.5269 0 17.25 7.722 17.25 17.2473s-7.7231 17.2473-17.25 17.2473c-1.9188 0-3.7919-.3138-5.5614-.916-1.7733-.6035-3.7538-.9149-5.6828-.4128z" stroke="url(#d)"/><path d="m5.72875 37.2244h-.00019c-.41682.1086-.84277-.1413-.95133-.558l-.00003-.0002c-.03353-.1286-.03358-.2639 0-.3929l1.30665-5.0186c.50284-1.9314.19001-3.9144-.4152-5.6896-.60387-1.7712-.91865-3.6465-.91865-5.5678 0-9.5253 7.723-17.2473 17.25-17.2473 9.5269 0 17.25 7.722 17.25 17.2473s-7.7231 17.2473-17.25 17.2473c-1.9188 0-3.7919-.3138-5.5614-.916-1.7733-.6035-3.7538-.9149-5.6828-.4128z" stroke="url(#e)" stroke-opacity=".6"/><path d="m5.72875 37.2244h-.00019c-.41682.1086-.84277-.1413-.95133-.558l-.00003-.0002c-.03353-.1286-.03358-.2639 0-.3929l1.30665-5.0186c.50284-1.9314.19001-3.9144-.4152-5.6896-.60387-1.7712-.91865-3.6465-.91865-5.5678 0-9.5253 7.723-17.2473 17.25-17.2473 9.5269 0 17.25 7.722 17.25 17.2473s-7.7231 17.2473-17.25 17.2473c-1.9188 0-3.7919-.3138-5.5614-.916-1.7733-.6035-3.7538-.9149-5.6828-.4128z" stroke="url(#f)" stroke-opacity=".8"/></g></g><g clip-path="url(#m)" filter="url(#b)"><g clip-path="url(#n)"><path d="m30.0993 23.0805c0 .2104-.0114.4196-.0342.6258-.1356 1.2576-.678 2.3948-1.4946 3.2743.1029-.1147.1956-.2378.2769-.3697.0627-.1002.1185-.2046.1656-.3136.0171-.0358.0327-.0731.0456-.1102.0156-.0358.0285-.0731.0399-.1101.0129-.0343.0243-.0702.0342-.106.0099-.0373.0201-.0743.0285-.1116.0015-.0043.003-.0088.0042-.013.0087-.0373.0156-.0743.0228-.1117.0072-.0385.0144-.0773.0201-.1158 0-.0015 0-.0015 0-.0027.0057-.0359.0099-.0717.0129-.109.0087-.0846.0129-.1689.0129-.255 0-.484-.1329-.9382-.3654-1.3246-.0528-.0903-.1113-.1761-.1755-.2577-.0756-.0975-.1569-.189-.2454-.2736-.2199-.2134-.4767-.3883-.7608-.5114-.1227-.0545-.2511-.0987-.3825-.1318-.0015 0-.0042-.0015-.0057-.0015l-.0456-.0157-.6651-.2291v-.0015l-1.74-.6002c-.0057-.0015-.0129-.0015-.0171-.0027l-.1086-.04c-.3498-.1375-.6396-.3952-.8208-.7233l-.6351-1.6257-.728-1.862-.1398-.3593-.0357-.0732c-.0399-.0975-.0615-.2035-.0615-.3136 0-.0286 0-.0572.003-.0831.0414-.4097.3882-.7305.8078-.7305.1113 0 .2184.0229.3156.0644l3.2424 1.6681.6396.3281c.3384.202.6537.4398.942.7077 1.0449.9625 1.7301 2.3116 1.833 3.8199.0087.1331.0144.2661.0144.4006z" fill="url(#g)"/><path d="m29.2328 25.2519c0 .1661-.0156.3266-.0444.4828-.0087.0415-.0171.0831-.027.1246-.0186.0743-.0384.146-.0627.2176-.0129.0373-.0258.0744-.0399.1102-.0144.0373-.03.0731-.0456.1101-.0471.109-.1029.2135-.1656.3137-.0813.1318-.1743.2549-.2769.3696-.4725.5243-2.0772 1.4592-2.6685 1.8391l-1.3128.8049c-.9617.5947-1.8713 1.0155-3.0176 1.0441-.0543.0015-.1071.003-.1599.003-.0741 0-.147-.0015-.2199-.0042-1.9413-.0743-3.6345-1.12-4.6107-2.6653-.4467-.7061-.7422-1.5167-.8421-2.3875.2097 1.1901 1.2435 2.0925 2.4897 2.0925.4368 0 .8466-.1101 1.2048-.3052.0027-.0015.0057-.003.0087-.0042l.1284-.0774.5226-.3094.6651-.3952v-.0187l.0858-.0514 5.9513-3.5377.4581-.2721.0456.0157c.0015 0 .0042.0015.0057.0015.1314.0328.2598.0774.3825.1318.2841.1231.5409.298.7608.5114.0885.0846.1698.1761.2454.2736.0642.0816.1227.1677.1755.2577.2307.3862.3636.8404.3636 1.3244z" fill="url(#h)"/><path d="m20.76 13.4459-.0021 13.1693-.6651.3955-.5229.3091-.1287.0782c-.0021 0-.006.0022-.0078.004-.3588.1938-.7686.3055-1.2057.3055-1.2465 0-2.2785-.9024-2.4894-2.0926-.0099-.0547-.0174-.1116-.0234-.1664-.0078-.1039-.0135-.2056-.0156-.3094v-14.8212c0-.46773.3786-.84939.8466-.84939.1755 0 .3393.05478.474.14478l2.5887 1.69701c.0138.0118.0291.0217.045.0313.6693.4581 1.1064 1.2293 1.1064 2.1043z" fill="url(#i)"/><path d="m29.2328 25.2519c0 .1661-.0156.3266-.0444.4828-.0087.0415-.0171.0831-.027.1246-.0186.0743-.0384.146-.0627.2176-.0129.0373-.0258.0744-.0399.1102-.0144.0373-.03.0731-.0456.1101-.0471.109-.1029.2135-.1656.3137-.0813.1318-.174.2549-.2769.3696-.4725.5243-2.0772 1.4592-2.6685 1.8391l-1.3128.8049c-.9617.5947-1.8713 1.0155-3.0176 1.0441-.0543.0015-.1071.003-.1599.003-.0741 0-.147-.0015-.2199-.0042-1.9413-.0743-3.6345-1.12-4.6107-2.6653-.4467-.7061-.7422-1.5167-.8421-2.3875.2097 1.1901 1.2435 2.0925 2.4897 2.0925.4368 0 .8466-.1101 1.2048-.3052.0027-.0015.0057-.003.0087-.0042l.1284-.0774.5226-.3094.6651-.3952v-.0187l.0858-.0514 5.9513-3.5377.4581-.2721.0456.0157c.0015 0 .0042.0015.0057.0015.1314.0328.2598.0774.3825.1318.2841.1231.5409.298.7608.5114.0885.0846.1698.1761.2454.2736.0642.0816.1227.1677.1755.2577.2307.3862.3636.8404.3636 1.3244z" fill="url(#k)" opacity=".15"/><path d="m20.76 13.4459-.0021 13.1693-.6651.3955-.5229.3091-.1287.0782c-.0021 0-.006.0022-.0078.004-.3588.1938-.7686.3055-1.2057.3055-1.2465 0-2.2785-.9024-2.4894-2.0926-.0099-.0547-.0174-.1116-.0234-.1664-.0078-.1039-.0135-.2056-.0156-.3094v-14.8212c0-.46773.3786-.84939.8466-.84939.1755 0 .3393.05478.474.14478l2.5887 1.69701c.0138.0118.0291.0217.045.0313.6693.4581 1.1064 1.2293 1.1064 2.1043z" fill="url(#l)" opacity=".1"/></g></g></svg>