<svg fill="none" height="113" viewBox="0 0 110 113" width="110" xmlns="http://www.w3.org/2000/svg" xmlns:xlink="http://www.w3.org/1999/xlink"><linearGradient id="a" gradientUnits="userSpaceOnUse" x1="35.5436" x2="109.734" y1="112.999" y2="61.1316"><stop offset="0" stop-color="#c640f0"/><stop offset="1" stop-color="#f3cbff"/></linearGradient><linearGradient id="b" gradientUnits="userSpaceOnUse" x1="51.3836" x2="82.0965" y1="87.8459" y2="37.0533"><stop offset=".284714" stop-color="#e9acfa"/><stop offset=".951408" stop-color="#c640f0"/></linearGradient><linearGradient id="c" gradientUnits="userSpaceOnUse" x1="34.4925" x2="50.5182" y1="25.5844" y2="34.9085"><stop offset="0" stop-color="#e9acfa"/><stop offset=".871558" stop-color="#8260f6"/></linearGradient><radialGradient id="d" cx="0" cy="0" gradientTransform="matrix(16.83574739 40.30898807 -35.31230349 14.74879548 10.0506 69.6152)" gradientUnits="userSpaceOnUse" r="1"><stop offset="0" stop-color="#e9acfa"/><stop offset=".658981" stop-color="#4b35f1"/></radialGradient><linearGradient id="e" gradientUnits="userSpaceOnUse" x1="15.799" x2="35.4084" y1="51.5771" y2="62.12"><stop offset="0" stop-color="#aa6cf5"/><stop offset="1" stop-color="#4b35f1"/></linearGradient><linearGradient id="f" gradientUnits="userSpaceOnUse" x1="87.4309" x2="109.459" y1="1.57458" y2="21.7176"><stop offset=".19096" stop-color="#c886f8"/><stop offset=".774317" stop-color="#4b35f1"/></linearGradient><linearGradient id="g" gradientUnits="userSpaceOnUse" x1="60.1523" x2="98.1869" y1="11.5972" y2="46.3773"><stop offset=".217003" stop-color="#c886f8"/><stop offset=".769109" stop-color="#4b35f1"/></linearGradient><path d="m35.5566 61.8724c-.0613-.521.2225-1.6119-.6501-2.4918-.7208-.7268-1.8882-.9602-3.3242-.6994-6.7989 1.1783-14.0066 9.0855-14.0194 9.0981-3.1114 3.1112-5.0821 6.7604-6.1399 10.7435-.4774 1.814-.7517 3.6543-.8101 5.5081-.1915 6.3869 2.1696 12.7716 6.9622 17.7061 6.1455 6.349 12.5763 8.217 15.3536 9.13 17.3997 5.685 36.8035-.33 50.7152-14.1274 19.5991-19.4376 19.8811-50.9811.7875-70.769 10.0023 10.3403 8.0217 28.6696-4.0538 40.6459-.9818.9737-6.6555 6.4236-14.5388 8.8293-6.9426 2.1302-12.2106 1.6132-16.7391.388-4.6935-1.2639-8.7428-4.7348-10.2225-6.2267-1.4796-1.4919-2.9277-4.4821-3.3206-7.7347z" fill="url(#a)"/><path d="m73.8501 20.4112c.6213 1.3677 1.1499 2.784 1.6035 4.2498 1.3599 4.4154 2.0122 9.2391 1.7176 14.259-1.0924 18.6095-9.9373 35.1154-26.3596 34.1514-9.6277-.5651-13.4832-7.3571-15.3588-11.2631-.288 16.8578 17.1184 25.3561 27.3913 25.9592 29.0438 1.7049 33.5553-24.8894 33.8942-30.6623.182-3.1016-.4387-7.8514-1.1688-10.7367-.0433-.1825-.0876-.347-.1488-.5305-3.124-11.1393-9.9874-20.7891-19.2244-27.3939-1.3299-.9416-3.015.4886-2.3462 1.9671z" fill="url(#b)"/><path d="m48.256 3.55388c1.9489-3.333811 6.1874-4.526218 9.5886-2.697546 3.4013 1.828676 4.7442 6.021936 3.0381 9.486266l-25.4993 51.7778-16.2555-8.7397z" fill="url(#c)"/><path d="m.603793 83.2547c-2.421563-8.8139 2.658157-18.2619 11.345907-21.1029 8.6877-2.8409 17.6935 2.001 20.1151 10.8148 2.4216 8.8139-2.6582 18.2619-11.3459 21.1029l-13.63308 4.4581c-1.15836.3788-2.35914-.2668-2.68202-1.442z" fill="url(#d)"/><path d="m14.783 61.5082 16.2554 8.7397 4.3699-8.1277-16.2555-8.7397z" fill="url(#e)"/><path d="m88.2734 14.3264c-1.1233-.7988-1.1233-2.467 0-3.2658l3.1904-2.26852c1.2321-.87609 2.3085-1.95255 3.1846-3.18463l2.2686-3.19034c.7987-1.12336 2.467-1.12337 3.266 0l2.268 3.19034c.876 1.23208 1.953 2.30854 3.185 3.18463l3.19 2.26852c1.124.7988 1.124 2.467 0 3.2658l-3.19 2.2686c-1.232.876-2.309 1.9525-3.185 3.1846l-2.268 3.1903c-.799 1.1234-2.4673 1.1234-3.266 0l-2.2686-3.1903c-.8761-1.2321-1.9525-2.3086-3.1846-3.1846z" fill="url(#f)"/><path d="m61.607 33.6152c-1.9396-1.3792-1.9396-4.2596 0-5.6389l5.5087-3.917c2.1273-1.5127 3.986-3.3714 5.4987-5.4987l3.917-5.5087c1.3793-1.9396 4.2597-1.9396 5.6389 0l3.917 5.5087c1.5128 2.1273 3.3714 3.986 5.4988 5.4987l5.5087 3.917c1.9396 1.3793 1.9396 4.2597 0 5.6389l-5.5087 3.917c-2.1274 1.5127-3.986 3.3714-5.4988 5.4988l-3.917 5.5086c-1.3792 1.9397-4.2596 1.9397-5.6389 0l-3.917-5.5086c-1.5127-2.1274-3.3714-3.9861-5.4987-5.4988z" fill="url(#g)"/></svg>