<svg fill="none" height="36" viewBox="0 0 24 36" width="24" xmlns="http://www.w3.org/2000/svg" xmlns:xlink="http://www.w3.org/1999/xlink"><linearGradient id="a" gradientUnits="userSpaceOnUse" x1="9.21363" x2="24.4336" y1="15.7436" y2="24.2192"><stop offset="0" stop-color="#37bdff"/><stop offset=".1832" stop-color="#33bffd"/><stop offset=".3576" stop-color="#28c5f5"/><stop offset=".528" stop-color="#15d0e9"/><stop offset=".5468" stop-color="#12d1e7"/><stop offset=".5903" stop-color="#1cd2e5"/><stop offset=".7679" stop-color="#42d8dc"/><stop offset=".9107" stop-color="#59dbd6"/><stop offset="1" stop-color="#62dcd4"/></linearGradient><linearGradient id="b" gradientUnits="userSpaceOnUse" x1=".449228" x2="22.214" y1="29.1728" y2="29.1728"><stop offset="0" stop-color="#39d2ff"/><stop offset=".1501" stop-color="#38cefe"/><stop offset=".2931" stop-color="#35c3fa"/><stop offset=".4327" stop-color="#2fb0f3"/><stop offset=".5468" stop-color="#299aeb"/><stop offset=".5827" stop-color="#2692ec"/><stop offset=".7635" stop-color="#1a6cf1"/><stop offset=".909" stop-color="#1355f4"/><stop offset="1" stop-color="#104cf5"/></linearGradient><linearGradient id="c" gradientUnits="userSpaceOnUse" x1="4.46712" x2="4.46712" y1="31.1563" y2=".983078"><stop offset="0" stop-color="#1b48ef"/><stop offset=".1221" stop-color="#1c51f0"/><stop offset=".3212" stop-color="#1e69f5"/><stop offset=".5676" stop-color="#2190fb"/><stop offset="1" stop-color="#26b8f4"/></linearGradient><linearGradient id="d"><stop offset="0" stop-color="#fff"/><stop offset=".3726" stop-color="#fdfdfd"/><stop offset=".5069" stop-color="#f6f6f6"/><stop offset=".6026" stop-color="#ebebeb"/><stop offset=".68" stop-color="#dadada"/><stop offset=".7463" stop-color="#c4c4c4"/><stop offset=".805" stop-color="#a8a8a8"/><stop offset=".8581" stop-color="#888"/><stop offset=".9069" stop-color="#626262"/><stop offset=".9523" stop-color="#373737"/><stop offset=".9926" stop-color="#090909"/><stop offset="1"/></linearGradient><linearGradient id="e" gradientUnits="userSpaceOnUse" x1="4.77535" x2="18.6916" xlink:href="#d" y1="34.7418" y2="21.3192"/><linearGradient id="f" gradientUnits="userSpaceOnUse" x1="4.46712" x2="4.46712" xlink:href="#d" y1=".447754" y2="30.8457"/><clipPath id="g"><path d="m.387207 0h23.2258v36h-23.2258z"/></clipPath><g clip-path="url(#g)"><path d="m23.6119 23.1344c0 .3507-.0184.6994-.0552 1.043-.2187 2.096-1.0935 3.9912-2.4106 5.4571.1659-.1911.3154-.3963.4466-.616.1011-.1671.1911-.3412.2671-.5228.0276-.0597.0527-.1219.0735-.1836.0252-.0597.046-.1219.0644-.1836.0208-.0572.0392-.1169.0551-.1766.016-.0622.0325-.1239.046-.1861.0024-.007.0048-.0146.0068-.0216.014-.0622.0251-.1239.0368-.1861.0116-.0642.0232-.1289.0324-.1931 0-.0025 0-.0025 0-.0045.0092-.0597.0159-.1194.0208-.1816.014-.141.0208-.2815.0208-.425 0-.8066-.2144-1.5636-.5894-2.2078-.0851-.1505-.1795-.2934-.283-.4294-.122-.1625-.2531-.315-.3958-.456-.3547-.3557-.7689-.6472-1.2271-.8523-.1979-.0908-.405-.1646-.617-.2198-.0024 0-.0067-.0025-.0092-.0025l-.0735-.0261-1.0727-.3817v-.0025l-2.8065-1.0003c-.0092-.0026-.0208-.0026-.0276-.0046l-.1751-.0667c-.5642-.2292-1.0316-.6587-1.3239-1.2055l-1.0243-2.7095-1.1744-3.1033-.2255-.5989-.0575-.1219c-.0644-.1626-.0992-.3392-.0992-.5228 0-.0476 0-.0953.0048-.1384.0668-.6828.6261-1.2176 1.3031-1.2176.1795 0 .3522.0382.509.1074l5.2296 2.7802 1.0317.5468c.5458.3366 1.0543.7329 1.5193 1.1794 1.6853 1.6043 2.7905 3.8528 2.9564 6.3666.0141.2218.0233.4435.0233.6677z" fill="url(#a)"/><path d="m22.2141 26.7535c0 .2769-.0252.5443-.0716.8046-.014.0693-.0276.1385-.0436.2077-.03.1239-.0619.2433-.1011.3627-.0208.0622-.0416.1239-.0643.1836-.0233.0622-.0484.1219-.0736.1836-.076.1816-.166.3557-.2671.5228-.1311.2197-.2811.4249-.4466.616-.7621.8739-3.3503 2.4321-4.304 3.0652l-2.1174 1.3414c-1.5513.9913-3.0184 1.6926-4.86724 1.7403-.08758.0025-.17274.005-.2579.005-.11951 0-.23709-.0025-.35467-.007-3.13112-.1239-5.86207-1.8667-7.43658-4.4422-.72048-1.1769-1.197087-2.5279-1.358215-3.9792.338224 1.9835 2.005635 3.4875 4.015625 3.4875.70451 0 1.36547-.1836 1.94321-.5087.00436-.0025.0092-.005.01404-.007l.20709-.1289.8429-.5157 1.07274-.6587v-.0311l.13838-.0858 9.59902-5.896.7388-.4535.0736.026c.0024 0 .0068.0026.0092.0026.2119.0546.419.1289.6169.2197.4582.2052.8724.4966 1.2271.8523.1427.141.2739.2935.3958.456.1035.136.1979.2794.2831.4294.3721.6437.5864 1.4007.5864 2.2074z" fill="url(#b)"/><path d="m8.54836 7.07673-.00339 21.94877-1.07274.6592-.84338.5152-.20758.1304c-.00338 0-.00967.0035-.01258.0065-.5787.3231-1.23967.5092-1.94466.5092-2.01048 0-3.674982-1.5039-4.015141-3.4875-.015967-.0913-.028064-.1861-.037742-.2774-.01258-.1731-.021774-.3427-.025161-.5158v-24.70185c0-.77959.610642-1.415696 1.365474-1.415696.28306 0 .54726.091303.76451.2413l4.1753 2.828376c.02226.01957.04694.03612.07258.05217 1.07951.76354 1.78451 2.0488 1.78451 3.50713z" fill="url(#c)"/><path d="m22.2141 26.7535c0 .2769-.0252.5443-.0716.8046-.014.0693-.0276.1385-.0436.2077-.03.1239-.0619.2433-.1011.3627-.0208.0622-.0416.1239-.0643.1836-.0233.0622-.0484.1219-.0736.1836-.076.1816-.166.3557-.2671.5228-.1311.2197-.2806.4249-.4466.616-.7621.8739-3.3503 2.4321-4.304 3.0652l-2.1174 1.3414c-1.5513.9913-3.0184 1.6926-4.86724 1.7403-.08758.0025-.17274.005-.2579.005-.11951 0-.23709-.0025-.35467-.007-3.13112-.1239-5.86207-1.8667-7.43658-4.4422-.72048-1.1769-1.197087-2.5279-1.358215-3.9792.338224 1.9835 2.005635 3.4875 4.015625 3.4875.70451 0 1.36547-.1836 1.94321-.5087.00436-.0025.0092-.005.01404-.007l.20709-.1289.8429-.5157 1.07274-.6587v-.0311l.13838-.0858 9.59902-5.896.7388-.4535.0736.026c.0024 0 .0068.0026.0092.0026.2119.0546.419.1289.6169.2197.4582.2052.8724.4966 1.2271.8523.1427.141.2739.2935.3958.456.1035.136.1979.2794.2831.4294.3721.6437.5864 1.4007.5864 2.2074z" fill="url(#e)" opacity=".15"/><path d="m8.54836 7.07673-.00339 21.94877-1.07274.6592-.84338.5152-.20758.1304c-.00338 0-.00967.0035-.01258.0065-.5787.3231-1.23967.5092-1.94466.5092-2.01048 0-3.674982-1.5039-4.015141-3.4875-.015967-.0913-.028064-.1861-.037742-.2774-.01258-.1731-.021774-.3427-.025161-.5158v-24.70185c0-.77959.610642-1.415696 1.365474-1.415696.28306 0 .54726.091303.76451.2413l4.1753 2.828376c.02226.01957.04694.03612.07258.05217 1.07951.76354 1.78451 2.0488 1.78451 3.50713z" fill="url(#f)" opacity=".1"/></g></svg>